<svg width="1920" height="910" viewBox="0 0 1920 910" fill="none" xmlns="http://www.w3.org/2000/svg">
<g clip-path="url(#clip0_203_69)">
<path d="M1920 0H0V910H1920V0Z" fill="#FFC45B"/>
<path d="M1148.4 455L646.8 910H1675.2L1148.4 455Z" fill="#C10000"/>
<path d="M1148.4 455L1047.48 910H1675.2L1148.4 455Z" fill="#B30000"/>
<path d="M-72 910L477.6 669.356L979.2 910H-72Z" fill="#D6002A"/>
<path d="M404.4 910L477.6 669.356L979.2 910H404.4Z" fill="#B1001A"/>
<path d="M1443.6 552.067L1862.4 910H1051.2L1443.6 552.067Z" fill="#D90049"/>
<path d="M1443.6 552.067L1862.4 910H1394.4L1443.6 552.067Z" fill="#850028"/>
<path d="M769.2 702.722L1063.2 910H440.4L769.2 702.722Z" fill="#D00054"/>
<path d="M704.4 910L769.2 702.722L1063.2 910H704.4Z" fill="#AA0043"/>
<path d="M2052 910L1681.2 639.022L1315.2 910H2052Z" fill="#C50081"/>
<path d="M2052 910L1681.2 639.022L1638 910H2052Z" fill="#A0006A"/>
<path d="M1452 910L1165.2 694.633L870 910H1452Z" fill="#A900A6"/>
<path d="M1131.6 910H1452L1165.2 694.633L1131.6 910Z" fill="#880088"/>
</g>
<defs>
<clipPath id="clip0_203_69">
<rect width="1920" height="910" fill="white"/>
</clipPath>
</defs>
</svg>
